<?xml version="1.0" standalone="no"?>
<!DOCTYPE svg PUBLIC "-//W3C//DTD SVG 20010904//EN"
 "http://www.w3.org/TR/2001/REC-SVG-20010904/DTD/svg10.dtd">
<svg version="1.0" xmlns="http://www.w3.org/2000/svg"
 width="626.000000pt" height="626.000000pt" viewBox="0 0 626.000000 626.000000"
 preserveAspectRatio="xMidYMid meet">

<g transform="translate(0.000000,626.000000) scale(0.100000,-0.100000)"
fill="#fff" stroke="none">
<path d="M2981 4827 c-7 -9 -12 -114 -13 -318 l-3 -304 -65 -5 c-36 -3 -75
-11 -87 -18 -33 -18 -64 -69 -70 -112 l-6 -40 -986 0 c-854 0 -995 -2 -1046
-15 -190 -50 -339 -207 -380 -402 -22 -102 -22 -1675 0 -1778 42 -198 197
-361 385 -404 30 -7 828 -11 2426 -11 2348 0 2383 0 2446 20 156 48 276 167
340 336 l23 59 3 851 c3 941 4 932 -60 1061 -40 82 -132 177 -214 220 -123 65
-77 63 -1166 63 -978 0 -988 0 -988 20 0 38 -32 100 -64 123 -22 15 -51 24
-96 27 l-65 5 -5 305 c-3 168 -9 311 -13 318 -12 18 -280 17 -296 -1z m197
-359 l-3 -263 -47 -3 -48 -3 0 265 0 266 50 0 50 0 -2 -262z m210 -390 c7 -7
12 -20 12 -30 0 -17 -17 -18 -275 -18 -232 0 -275 2 -275 14 0 8 7 22 16 30
13 14 51 16 263 16 179 0 250 -3 259 -12z m2114 -169 c128 -27 231 -107 290
-226 l33 -68 0 -890 0 -890 -32 -67 c-41 -88 -113 -160 -201 -201 l-67 -32
-2395 0 -2395 0 -67 32 c-88 41 -160 113 -201 201 l-32 67 0 890 0 890 33 68
c58 116 158 196 282 223 76 17 4673 19 4752 3z"/>
<path d="M711 3864 c-97 -34 -174 -106 -220 -203 l-26 -56 -3 -864 c-2 -776
-1 -870 14 -915 42 -131 148 -226 284 -255 42 -9 631 -11 2405 -9 l2350 3 65
31 c102 49 169 125 204 230 15 46 16 128 14 915 l-3 864 -33 67 c-37 75 -103
142 -179 179 l-48 24 -969 3 c-712 2 -972 -1 -982 -9 -11 -9 -14 -58 -14 -234
0 -238 -5 -271 -49 -319 -49 -54 -64 -56 -394 -56 -298 0 -305 0 -347 23 -30
16 -51 37 -67 67 -22 41 -23 53 -23 267 0 136 -4 232 -10 244 -10 19 -32 19
-968 19 -837 -1 -963 -3 -1001 -16z m1871 -306 c3 -242 8 -259 85 -335 73 -70
91 -73 469 -73 l332 0 63 33 c68 35 120 97 139 165 5 20 10 124 10 230 l0 192
913 -2 912 -3 47 -27 c61 -36 105 -91 123 -152 23 -77 22 -1648 -1 -1725 -19
-64 -77 -131 -139 -160 l-45 -21 -2351 0 c-1831 0 -2361 3 -2393 12 -25 8 -61
32 -93 63 -87 85 -83 37 -83 970 0 868 0 865 50 934 28 40 81 80 127 97 31 11
212 13 935 14 l897 0 3 -212z"/>
<path d="M1460 3607 c-49 -17 -80 -68 -80 -131 l0 -51 -73 -37 c-136 -71 -244
-179 -318 -320 l-40 -78 -47 0 c-59 0 -90 -16 -120 -60 -23 -34 -23 -40 -20
-218 l3 -184 37 -34 c22 -20 49 -35 65 -35 16 -1 40 -2 55 -3 24 -1 33 -11 65
-73 77 -147 180 -250 321 -321 l72 -36 0 -51 c0 -62 28 -111 75 -131 48 -20
332 -20 380 0 47 20 75 69 75 131 l0 50 73 37 c140 72 240 173 317 320 l38 71
52 3 c59 3 93 22 120 67 18 28 20 51 20 195 0 184 -9 219 -62 252 -21 12 -51
20 -80 20 l-47 0 -40 78 c-71 134 -189 253 -324 323 l-67 34 0 48 c0 57 -19
97 -57 123 -24 16 -50 19 -193 21 -111 2 -176 -1 -200 -10z m340 -410 c4 -250
7 -299 20 -307 9 -6 139 -10 303 -10 l287 0 0 -155 0 -155 -288 0 c-266 0
-290 -1 -305 -18 -15 -16 -17 -56 -19 -308 l-3 -289 -152 -3 -153 -3 0 294 c0
271 -1 295 -18 310 -16 15 -56 17 -308 19 l-289 3 -2 139 c-1 76 1 145 4 152
4 11 58 14 293 14 249 0 291 2 304 16 14 13 16 56 16 310 l0 295 153 -3 152
-3 5 -298z m-420 -57 l0 -150 -150 0 c-82 0 -150 4 -150 8 0 18 82 134 123
176 48 48 145 116 164 116 10 0 13 -36 13 -150z m593 123 c64 -40 156 -131
199 -197 21 -33 38 -63 38 -68 0 -4 -67 -8 -150 -8 l-150 0 0 150 c0 95 4 150
10 150 6 0 29 -12 53 -27z m-720 -812 l127 -1 0 -151 0 -150 -52 28 c-68 36
-177 143 -216 213 -38 66 -38 67 -9 64 12 -1 79 -3 150 -3z m957 1 c0 -14 -47
-89 -85 -135 -41 -51 -133 -125 -192 -156 l-23 -12 0 150 0 150 128 3 c159 4
172 4 172 0z"/>
<path d="M1590 2951 c-110 -36 -174 -119 -173 -226 1 -70 23 -123 75 -172 34
-33 103 -63 145 -63 86 0 180 59 214 134 37 82 20 198 -39 259 -54 57 -158 89
-222 68z m130 -140 c78 -78 32 -201 -75 -201 -107 0 -153 123 -75 201 23 24
37 29 75 29 38 0 52 -5 75 -29z"/>
<path d="M4164 3461 c-58 -15 -123 -52 -158 -91 -60 -66 -79 -115 -84 -212 -4
-76 -1 -92 21 -141 34 -74 88 -131 155 -164 80 -39 192 -40 273 -2 68 32 120
83 156 152 24 45 28 63 28 142 0 78 -4 97 -27 140 -34 65 -101 129 -162 156
-54 23 -152 33 -202 20z m162 -127 c18 -9 49 -33 67 -54 75 -82 69 -210 -13
-284 -52 -46 -77 -56 -149 -56 -169 0 -260 196 -155 336 49 67 172 95 250 58z"/>
<path d="M5003 3452 c-95 -34 -144 -77 -194 -172 -20 -38 -24 -59 -24 -135 0
-79 4 -97 28 -142 35 -67 84 -116 150 -150 45 -23 64 -27 137 -27 68 0 94 5
131 23 68 32 120 81 154 142 28 50 30 62 30 154 0 92 -2 104 -30 154 -75 135
-243 203 -382 153z m218 -136 c45 -31 89 -114 89 -170 0 -23 -11 -64 -24 -93
-79 -169 -329 -147 -382 34 -55 188 152 338 317 229z"/>
<path d="M4165 2621 c-89 -23 -167 -83 -210 -162 -24 -45 -30 -69 -33 -141 -4
-76 -1 -93 21 -141 34 -74 88 -131 155 -164 80 -39 192 -40 273 -2 68 32 120
83 156 152 24 45 28 64 28 137 0 71 -4 94 -26 140 -52 109 -155 179 -273 186
-33 2 -74 0 -91 -5z m164 -131 c53 -26 97 -83 111 -141 25 -102 -41 -213 -145
-245 -133 -40 -266 63 -265 205 1 72 57 156 125 187 45 20 129 17 174 -6z"/>
<path d="M5015 2616 c-91 -29 -158 -85 -203 -171 -23 -43 -27 -62 -27 -140 0
-84 2 -95 34 -153 36 -66 75 -103 151 -143 37 -20 60 -24 130 -24 73 0 93 4
142 28 62 31 116 84 149 149 26 51 37 172 20 233 -44 164 -237 271 -396 221z
m203 -138 c56 -38 96 -120 90 -187 -7 -68 -37 -121 -90 -157 -58 -39 -111 -48
-173 -29 -104 31 -170 142 -145 245 13 55 63 119 112 144 51 26 154 18 206
-16z"/>
<path d="M2615 2196 c-42 -18 -83 -69 -91 -113 -9 -50 21 -121 65 -150 32 -22
43 -23 214 -23 165 0 182 2 214 21 43 27 66 72 67 132 0 51 -19 85 -68 121
-25 19 -43 21 -199 23 -128 2 -180 -1 -202 -11z m352 -122 c3 -9 2 -24 -4 -33
-8 -13 -34 -17 -144 -19 -160 -3 -179 0 -179 32 0 12 3 26 7 29 3 4 75 7 160
7 133 0 154 -2 160 -16z"/>
<path d="M3265 2196 c-90 -40 -122 -157 -63 -231 39 -50 63 -55 254 -55 157 0
180 2 208 19 90 56 91 189 3 255 -26 19 -43 21 -200 23 -128 2 -180 -1 -202
-11z m352 -122 c3 -9 2 -24 -4 -33 -9 -14 -33 -16 -164 -16 -140 0 -154 2
-157 18 -9 45 -1 47 163 47 135 0 156 -2 162 -16z"/>
</g>
</svg>
